HIERARCHY
ROOT Hips
{
  OFFSET 5.80788e-005 67.184 3.4734
  CHANNELS 6 Xposition Yposition Zposition Zrotation Xrotation Yrotation
  JOINT Chest
  {
    OFFSET 0 8.7983 -4.7612
    CHANNELS 6 Xposition Yposition Zposition Zrotation Xrotation Yrotation
    JOINT Chest2
    {
      OFFSET 0 8.0291 0.4195
      CHANNELS 6 Xposition Yposition Zposition Zrotation Xrotation Yrotation
      JOINT Chest3
      {
        OFFSET 0 9.9351 -2.2114
        CHANNELS 6 Xposition Yposition Zposition Zrotation Xrotation Yrotation
        JOINT Neck
        {
          OFFSET 0 22.3885 -0.4656
          CHANNELS 6 Xposition Yposition Zposition Zrotation Xrotation Yrotation
          JOINT Head
          {
            OFFSET -0.0001 12.643 3.4389
            CHANNELS 6 Xposition Yposition Zposition Zrotation Xrotation Yrotation
            End Site
            {
              OFFSET 0.0001 17.6655 0.5274
            }
          }
        }
        JOINT LeftCollar
        {
          OFFSET 2.2603 21.606 7.4023
          CHANNELS 6 Xposition Yposition Zposition Zrotation Xrotation Yrotation
          JOINT LeftShoulder
          {
            OFFSET 13.5163 -1.1332 -5.0146
            CHANNELS 6 Xposition Yposition Zposition Zrotation Xrotation Yrotation
            JOINT LeftElbow
            {
              OFFSET -0.0995 -28.05 -0.2431
              CHANNELS 6 Xposition Yposition Zposition Zrotation Xrotation Yrotation
              JOINT LeftWrist
              {
                OFFSET 0.0679 -23.3996 -0.1402
                CHANNELS 6 Xposition Yposition Zposition Zrotation Xrotation Yrotation
                JOINT LeftFinger1
                {
                  OFFSET 0.7932 -9.069 2.5189
                  CHANNELS 6 Xposition Yposition Zposition Zrotation Xrotation Yrotation
                  JOINT LeftFinger11
                  {
                    OFFSET -0.8272 -3.3923 0.5977
                    CHANNELS 6 Xposition Yposition Zposition Zrotation Xrotation Yrotation
                    JOINT LeftFinger12
                    {
                      OFFSET -0.5649 -2.3158 0.4082
                      CHANNELS 6 Xposition Yposition Zposition Zrotation Xrotation Yrotation
                      End Site
                      {
                        OFFSET -0.4919 -1.6479 0.2673
                      }
                    }
                  }
                }
                JOINT LeftFinger2
                {
                  OFFSET 0.9159 -9.2044 0.2193
                  CHANNELS 6 Xposition Yposition Zposition Zrotation Xrotation Yrotation
                  JOINT LeftFinger21
                  {
                    OFFSET 0.0117 -4.1944 -0.0248
                    CHANNELS 6 Xposition Yposition Zposition Zrotation Xrotation Yrotation
                    JOINT LeftFinger22
                    {
                      OFFSET 0.0071 -2.3249 -0.0142
                      CHANNELS 6 Xposition Yposition Zposition Zrotation Xrotation Yrotation
                      End Site
                      {
                        OFFSET -0.1475 -2.0882 0.0028
                      }
                    }
                  }
                }
                JOINT LeftFinger3
                {
                  OFFSET 0.6113 -8.7231 -2.0637
                  CHANNELS 6 Xposition Yposition Zposition Zrotation Xrotation Yrotation
                  JOINT LeftFinger31
                  {
                    OFFSET -0.1927 -3.8059 -0.2383
                    CHANNELS 6 Xposition Yposition Zposition Zrotation Xrotation Yrotation
                    JOINT LeftFinger32
                    {
                      OFFSET -0.1091 -2.1688 -0.1362
                      CHANNELS 6 Xposition Yposition Zposition Zrotation Xrotation Yrotation
                      End Site
                      {
                        OFFSET -0.2358 -1.9176 -0.0906
                      }
                    }
                  }
                }
                JOINT LeftFinger4
                {
                  OFFSET -0.6151 -8.0947 -3.5641
                  CHANNELS 6 Xposition Yposition Zposition Zrotation Xrotation Yrotation
                  JOINT LeftFinger41
                  {
                    OFFSET -0.4882 -2.341 -0.6462
                    CHANNELS 6 Xposition Yposition Zposition Zrotation Xrotation Yrotation
                    JOINT LeftFinger42
                    {
                      OFFSET -0.3575 -1.7167 -0.4742
                      CHANNELS 6 Xposition Yposition Zposition Zrotation Xrotation Yrotation
                      End Site
                      {
                        OFFSET -0.4187 -1.5237 -0.3496
                      }
                    }
                  }
                }
                JOINT LeftFinger0
                {
                  OFFSET -1.42 -1.8761 1.4223
                  CHANNELS 6 Xposition Yposition Zposition Zrotation Xrotation Yrotation
                  JOINT LeftFinger01
                  {
                    OFFSET -1.1471 -3.4929 2.6334
                    CHANNELS 6 Xposition Yposition Zposition Zrotation Xrotation Yrotation
                    JOINT LeftFinger02
                    {
                      OFFSET -0.823 -2.3 1.6571
                      CHANNELS 6 Xposition Yposition Zposition Zrotation Xrotation Yrotation
                      End Site
                      {
                        OFFSET -0.5822 -1.6914 1.1582
                      }
                    }
                  }
                }
              }
            }
          }
        }
        JOINT RightCollar
        {
          OFFSET -2.2603 21.606 7.4023
          CHANNELS 6 Xposition Yposition Zposition Zrotation Xrotation Yrotation
          JOINT RightShoulder
          {
            OFFSET -13.5187 -1.1334 -5.0155
            CHANNELS 6 Xposition Yposition Zposition Zrotation Xrotation Yrotation
            JOINT RightElbow
            {
              OFFSET 0.0994 -28.0499 -0.2431
              CHANNELS 6 Xposition Yposition Zposition Zrotation Xrotation Yrotation
              JOINT RightWrist
              {
                OFFSET -0.0679 -23.3996 -0.1402
                CHANNELS 6 Xposition Yposition Zposition Zrotation Xrotation Yrotation
                JOINT RightFinger1
                {
                  OFFSET -0.7932 -9.0691 2.5189
                  CHANNELS 6 Xposition Yposition Zposition Zrotation Xrotation Yrotation
                  JOINT RightFinger11
                  {
                    OFFSET 0.8272 -3.3923 0.5977
                    CHANNELS 6 Xposition Yposition Zposition Zrotation Xrotation Yrotation
                    JOINT RightFinger12
                    {
                      OFFSET 0.565 -2.3158 0.4082
                      CHANNELS 6 Xposition Yposition Zposition Zrotation Xrotation Yrotation
                      End Site
                      {
                        OFFSET 0.4919 -1.6479 0.2673
                      }
                    }
                  }
                }
                JOINT RightFinger2
                {
                  OFFSET -0.916 -9.2044 0.2193
                  CHANNELS 6 Xposition Yposition Zposition Zrotation Xrotation Yrotation
                  JOINT RightFinger21
                  {
                    OFFSET -0.0117 -4.1944 -0.0248
                    CHANNELS 6 Xposition Yposition Zposition Zrotation Xrotation Yrotation
                    JOINT RightFinger22
                    {
                      OFFSET -0.0071 -2.3249 -0.0142
                      CHANNELS 6 Xposition Yposition Zposition Zrotation Xrotation Yrotation
                      End Site
                      {
                        OFFSET 0.1475 -2.0882 0.0028
                      }
                    }
                  }
                }
                JOINT RightFinger3
                {
                  OFFSET -0.6113 -8.7231 -2.0637
                  CHANNELS 6 Xposition Yposition Zposition Zrotation Xrotation Yrotation
                  JOINT RightFinger31
                  {
                    OFFSET 0.1927 -3.8059 -0.2383
                    CHANNELS 6 Xposition Yposition Zposition Zrotation Xrotation Yrotation
                    JOINT RightFinger32
                    {
                      OFFSET 0.1091 -2.1688 -0.1362
                      CHANNELS 6 Xposition Yposition Zposition Zrotation Xrotation Yrotation
                      End Site
                      {
                        OFFSET 0.2358 -1.9176 -0.0906
                      }
                    }
                  }
                }
                JOINT RightFinger4
                {
                  OFFSET 0.6151 -8.0947 -3.564
                  CHANNELS 6 Xposition Yposition Zposition Zrotation Xrotation Yrotation
                  JOINT RightFinger41
                  {
                    OFFSET 0.4882 -2.341 -0.6462
                    CHANNELS 6 Xposition Yposition Zposition Zrotation Xrotation Yrotation
                    JOINT RightFinger42
                    {
                      OFFSET 0.3574 -1.7166 -0.4742
                      CHANNELS 6 Xposition Yposition Zposition Zrotation Xrotation Yrotation
                      End Site
                      {
                        OFFSET 0.4187 -1.5237 -0.3496
                      }
                    }
                  }
                }
                JOINT RightFinger0
                {
                  OFFSET 1.4199 -1.8761 1.4221
                  CHANNELS 6 Xposition Yposition Zposition Zrotation Xrotation Yrotation
                  JOINT RightFinger01
                  {
                    OFFSET 1.1472 -3.4929 2.6336
                    CHANNELS 6 Xposition Yposition Zposition Zrotation Xrotation Yrotation
                    JOINT RightFinger02
                    {
                      OFFSET 0.8229 -2.3 1.6571
                      CHANNELS 6 Xposition Yposition Zposition Zrotation Xrotation Yrotation
                      End Site
                      {
                        OFFSET 0.5822 -1.6914 1.1582
                      }
                    }
                  }
                }
              }
            }
          }
        }
      }
    }
  }
  JOINT RightHip
  {
    OFFSET -9.412 3.9771 -0.7758
    CHANNELS 6 Xposition Yposition Zposition Zrotation Xrotation Yrotation
    JOINT RightKnee
    {
      OFFSET -0.7531 -40.938 0
      CHANNELS 6 Xposition Yposition Zposition Zrotation Xrotation Yrotation
      JOINT RightAnkle
      {
        OFFSET 0 -40.1986 0
        CHANNELS 6 Xposition Yposition Zposition Zrotation Xrotation Yrotation
        JOINT RightToe
        {
          OFFSET 0 -4.4182 9.239
          CHANNELS 6 Xposition Yposition Zposition Zrotation Xrotation Yrotation
          End Site
          {
            OFFSET 0 0 6.1981
          }
        }
      }
    }
  }
  JOINT LeftHip
  {
    OFFSET 9.4119 3.9773 -0.7758
    CHANNELS 6 Xposition Yposition Zposition Zrotation Xrotation Yrotation
    JOINT LeftKnee
    {
      OFFSET 0.7532 -40.9383 0
      CHANNELS 6 Xposition Yposition Zposition Zrotation Xrotation Yrotation
      JOINT LeftAnkle
      {
        OFFSET 0 -40.1986 0
        CHANNELS 6 Xposition Yposition Zposition Zrotation Xrotation Yrotation
        JOINT LeftToe
        {
          OFFSET 0 -4.4182 9.239
          CHANNELS 6 Xposition Yposition Zposition Zrotation Xrotation Yrotation
          End Site
          {
            OFFSET 0 0 6.1981
          }
        }
      }
    }
  }
}
MOTION
Frames:	4
Frame Time:	0.0333333
5.80788e-005 67.184 3.4734 0 0 -0 0 8.7983 -4.7612 0 0 -0 0 8.0291 0.4195 0 0 -0 0 9.9351 -2.2114 0 0 -0 0 22.3885 -0.4656 0 0 -0 -0.0001 12.643 3.4389 0 0 -0 2.2603 21.606 7.4023 0 0 -12.5014 13.5163 -1.1332 -5.0146 88.1196 14.2451 10.6914 -0.0995 -28.05 -0.2431 -0.00160068 -0.00239207 0.000740045 0.0679 -23.3996 -0.1402 -8.4365e-005 7.00714e-005 -9.52055e-007 0.7932 -9.069 2.5189 9.93923e-017 -1.98785e-016 -1.59028e-015 -0.8272 -3.3923 0.5977 9.93923e-017 -5.96354e-016 -1.59028e-015 -0.5649 -2.3158 0.4082 -9.93923e-017 -5.96354e-016 -1.59028e-015 0.9159 -9.2044 0.2193 9.93923e-017 -1.98785e-016 -1.59028e-015 0.0117 -4.1944 -0.0248 -0.0128176 0.00232552 8.52707e-005 0.0071 -2.3249 -0.0142 9.93923e-017 5.96354e-016 -0 0.6113 -8.7231 -2.0637 9.93923e-017 -1.98785e-016 -1.59028e-015 -0.1927 -3.8059 -0.2383 -0.0160551 0.00299681 0.000857156 -0.1091 -2.1688 -0.1362 -2.48481e-016 0 3.18055e-015 -0.6151 -8.0947 -3.5641 9.93923e-017 -1.98785e-016 -1.59028e-015 -0.4882 -2.341 -0.6462 -0.0125865 0.0031206 0.00282719 -0.3575 -1.7167 -0.4742 0 1.98785e-016 -0 -1.42 -1.8761 1.4223 9.93923e-017 -1.98785e-016 -1.59028e-015 -1.1471 -3.4929 2.6334 9.93923e-017 -5.96354e-016 -1.59028e-015 -0.823 -2.3 1.6571 -9.93923e-017 -5.96354e-016 -1.59028e-015 -2.2603 21.606 7.4023 -0.865644 0.16582 7.03859 -13.5187 -1.1334 -5.0155 -88.0329 10.2057 -10.5567 0.0994 -28.0499 -0.2431 0.0015593 -0.00248883 -0.000788628 -0.0679 -23.3996 -0.1402 7.87605e-005 4.10553e-005 1.24965e-005 -0.7932 -9.0691 2.5189 -3.97569e-016 -7.95139e-016 3.18055e-015 0.8272 -3.3923 0.5977 -1.98785e-016 -3.97569e-016 3.18055e-015 0.565 -2.3158 0.4082 -1.98785e-016 0 3.18055e-015 -0.916 -9.2044 0.2193 -3.97569e-016 -7.95139e-016 3.18055e-015 -0.0117 -4.1944 -0.0248 0.0129473 0.00231697 -8.70038e-005 -0.0071 -2.3249 -0.0142 9.93923e-017 -7.95139e-016 1.59028e-015 -0.6113 -8.7231 -2.0637 -3.97569e-016 -7.95139e-016 3.18055e-015 0.1927 -3.8059 -0.2383 0.0163314 0.00303369 -0.000872333 0.1091 -2.1688 -0.1362 3.97569e-016 7.95139e-016 -3.18055e-015 0.6151 -8.0947 -3.564 -3.97569e-016 -7.95139e-016 3.18055e-015 0.4882 -2.341 -0.6462 0.0145763 0.00367772 -0.00326275 0.3574 -1.7166 -0.4742 9.93923e-017 -3.97569e-016 -0 1.4199 -1.8761 1.4221 -3.97569e-016 -7.95139e-016 3.18055e-015 1.1472 -3.4929 2.6336 -1.98785e-016 -3.97569e-016 3.18055e-015 0.8229 -2.3 1.6571 -1.98785e-016 0 3.18055e-015 -9.412 3.9771 -0.7758 3.42485 1.36937 -0.0640303 -0.7531 -40.938 0 0.000136572 0.69354 0.00145564 1.77636e-015 -40.1986 -1.11022e-016 -3.42573 -2.06297 -0.0607933 8.88178e-016 -4.4182 9.239 -3.19502e-024 0 -1.48106e-024 9.4119 3.9773 -0.7758 -3.42498 1.36123 0.0639712 0.7532 -40.9383 2.22045e-016 -6.769e-005 0.712612 -0.0012277 8.88179e-016 -40.1986 0 3.42582 -2.07388 0.0612819 -8.88178e-016 -4.4182 9.239 2.55305e-023 0 -2.31416e-026 
2.54207 30.7174 29.8696 0.0207104 0.0195393 133.333 -7.10543e-015 8.7983 -4.7612 1.37761 6.13522 -0.707568 0 8.0291 0.4195 2.85656 12.251 -1.57791 0 9.9351 -2.2114 2.85656 12.251 -1.57791 3.55271e-015 22.3885 -0.4656 -14.9802 12.4886 4.78066 -0.0001 12.643 3.4389 -3.75533e-006 -33.3359 -5.30029e-006 2.2603 21.606 7.4023 -2.0377 -35.9726 11.9391 13.5163 -1.1332 -5.0146 41.0208 -16.7081 12.6061 -0.0995 -28.05 -0.2431 -70.4827 -79.2689 -101.705 0.0679 -23.3996 -0.1402 -2.7248 -0.625403 19.3218 0.7932 -9.06901 2.5189 2.64516e-007 -2.67559e-006 -3.02875e-006 -0.8272 -3.3923 0.5977 -1.59028e-015 0 -1.59028e-015 -0.5649 -2.3158 0.4082 1.59028e-015 -3.18055e-015 -9.54166e-015 0.9159 -9.2044 0.2193 2.64516e-007 -2.67559e-006 -3.02875e-006 0.0117 -4.1944 -0.0248 -0.0128368 0.00233159 8.4043e-005 0.0071 -2.3249 -0.0142 8.81567e-006 -2.03366e-006 4.36783e-006 0.6113 -8.7231 -2.0637 2.64516e-007 -2.67559e-006 -3.02875e-006 -0.1927 -3.8059 -0.2383 -0.016006 0.00299231 0.000860471 -0.1091 -2.1688 -0.1362 -1.59028e-015 1.27222e-014 1.59028e-015 -0.6151 -8.0947 -3.5641 2.64516e-007 -2.67559e-006 -3.02875e-006 -0.4882 -2.341 -0.6462 -0.012588 0.00312865 0.00283683 -0.3575 -1.7167 -0.4742 -7.96634e-006 -5.90195e-006 -2.55062e-006 -1.42 -1.8761 1.4223 2.64516e-007 -2.67559e-006 -3.02875e-006 -1.1471 -3.4929 2.6334 -1.59028e-015 0 -1.59028e-015 -0.823 -2.3 1.6571 1.59028e-015 -3.18055e-015 -9.54166e-015 -2.2603 21.606 7.4023 30.9181 -48.0291 2.7005 -13.5187 -1.1334 -5.0155 -68.9437 21.009 1.71578 0.0993999 -28.0499 -0.2431 34.086 5.77009 22.0519 -0.0679 -23.3996 -0.1402 -11.2262 -29.7862 -45.051 -0.7932 -9.06911 2.5189 3.97569e-016 8.34896e-015 -0 0.8272 -3.3923 0.5977 1.98785e-016 5.71506e-015 -1.59028e-015 0.565 -2.3158 0.4082 -1.98785e-016 6.36111e-015 -1.59028e-015 -0.916 -9.20441 0.2193 3.97569e-016 8.34896e-015 -0 -0.0117 -4.1944 -0.0248 0.0129231 0.00230379 -8.12463e-005 -0.0071 -2.3249 -0.0142 -2.18663e-015 -4.57205e-015 3.18055e-015 -0.6113 -8.72311 -2.0637 3.97569e-016 8.34896e-015 -0 0.1927 -3.8059 -0.2383 0.0163057 0.00302537 -0.000876189 0.1091 -2.1688 -0.1362 -1.83453e-031 6.60959e-015 1.59028e-015 0.6151 -8.09471 -3.564 3.97569e-016 8.34896e-015 -0 0.4882 -2.341 -0.6462 0.0146522 0.00371143 -0.00327904 0.3574 -1.7166 -0.4742 -1.39149e-015 4.96962e-015 4.77083e-015 1.4199 -1.8761 1.4221 3.97569e-016 8.34896e-015 -0 1.1472 -3.4929 2.6336 1.98785e-016 5.71506e-015 -1.59028e-015 0.8229 -2.3 1.6571 -1.98785e-016 6.36111e-015 -1.59028e-015 -9.412 3.9771 -0.7758 -1.24957 0.200414 -2.37956 -0.7531 -40.938 -3.55271e-015 -15.8297 76.9715 14.235 7.10543e-015 -40.1986 8.88178e-016 -8.38752 36.4626 -1.58851 -7.10543e-015 -4.4182 9.239 -8.14325e-006 1.37588e-005 1.33182e-006 9.4119 3.9773 -0.7758 2.75162 -1.2887 2.41854 0.7532 -40.9383 0 13.707 76.2989 -12.797 5.32907e-015 -40.1986 0 9.24622 36.0977 0.960521 0 -4.4182 9.239 6.44351e-007 -1.95772e-006 -1.56681e-006 
-0.126872 14.4161 43.6146 0.0229786 -0.0969541 -166.667 0 8.7983 -4.7612 2.11643 8.78621 -0.904629 0 8.0291 0.4195 4.4547 17.5309 -2.18058 0 9.9351 -2.2114 4.45471 17.531 -2.18058 0 22.3885 -0.4656 -22.5305 18.7695 7.41516 -0.0001 12.643 3.4389 1.04901e-006 -48.3371 1.06512e-006 2.2603 21.606 7.4023 9.74457 -46.4207 30.7569 13.5163 -1.1332 -5.0146 22.5252 -32.5333 13.0202 -0.0995 -28.05 -0.2431 -156.947 -51.68 157.585 0.0679 -23.3996 -0.1402 -3.81857 -1.25044 27.7154 0.7932 -9.069 2.5189 -1.27222e-014 0 9.54166e-015 -0.8272 -3.3923 0.5977 1.27222e-014 0 3.18055e-015 -0.5649 -2.3158 0.4082 -1.27222e-014 0 -3.18055e-015 0.9159 -9.2044 0.2193 -1.27222e-014 0 9.54166e-015 0.0117 -4.1944 -0.0248 -0.0128149 0.00232228 8.46026e-005 0.0071 -2.3249 -0.0142 -9.54166e-015 -3.18055e-015 6.36111e-015 0.6113 -8.7231 -2.0637 -1.27222e-014 0 9.54166e-015 -0.1927 -3.8059 -0.2383 -0.0160414 0.00298375 0.00084793 -0.1091 -2.1688 -0.1362 -9.54166e-015 6.36111e-015 3.18055e-015 -0.6151 -8.0947 -3.5641 -1.27222e-014 0 9.54166e-015 -0.4882 -2.341 -0.6462 -0.0125723 0.00312917 0.00284046 -0.3575 -1.7167 -0.4742 -3.18055e-015 -3.18055e-015 3.18055e-015 -1.42 -1.8761 1.4223 -1.27222e-014 0 9.54166e-015 -1.1471 -3.4929 2.6334 1.27222e-014 0 3.18055e-015 -0.823 -2.3 1.6571 -1.27222e-014 0 -3.18055e-015 -2.2603 21.606 7.4023 38.2667 -69.4012 -5.55031 -13.5187 -1.1334 -5.0155 -60.4931 25.7872 7.45219 0.0994 -28.0499 -0.2431 42.0764 6.96402 45.5528 -0.0679 -23.3996 -0.1402 -15.3037 -43.6758 -63.4517 -0.7932 -9.0691 2.5189 -1.59028e-014 0 -6.36111e-015 0.8272 -3.3923 0.5977 -3.3704e-006 -4.77045e-006 3.27511e-006 0.565 -2.3158 0.4082 3.18055e-015 1.59028e-015 -3.18055e-015 -0.916 -9.2044 0.2193 -1.59028e-014 0 -6.36111e-015 -0.0117 -4.1944 -0.0248 0.0129789 0.0023248 -8.58018e-005 -0.0071 -2.3249 -0.0142 1.27222e-014 1.59028e-015 -0 -0.6113 -8.7231 -2.0637 -1.59028e-014 0 -6.36111e-015 0.1927 -3.8059 -0.2383 0.0163284 0.00302888 -0.00088246 0.1091 -2.1688 -0.1362 -6.36111e-015 -9.54166e-015 -0 0.6151 -8.0947 -3.564 -1.59028e-014 0 -6.36111e-015 0.4882 -2.341 -0.6462 0.0145914 0.00368452 -0.00327312 0.3574 -1.7166 -0.4742 0 0 -1.27222e-014 1.4199 -1.8761 1.4221 -1.59028e-014 0 -6.36111e-015 1.1472 -3.4929 2.6336 -3.3704e-006 -4.77045e-006 3.27511e-006 0.8229 -2.3 1.6571 3.18055e-015 1.59028e-015 -3.18055e-015 -9.412 3.9771 -0.7758 -3.12235 -0.318079 -4.27005 -0.7531 -40.938 7.10543e-015 -165.507 69.2096 161.258 1.77636e-015 -40.1986 0 -8.41633 55.5638 -4.32289 0 -4.4182 9.239 -4.13985e-007 1.62448e-006 9.91199e-008 9.4119 3.9773 -0.7758 5.30569 -2.4996 4.22405 0.7532 -40.9383 7.10543e-015 164.451 70.2233 -161.25 0 -40.1986 0 10.2808 55.0349 2.95836 -2.22045e-016 -4.4182 9.239 -1.21885e-006 -6.3503e-007 -1.07978e-006 
0.48541 18.1501 40.4348 -7.06377e-015 -0.384308 180 -5.55112e-017 8.7983 -4.7612 1.94787 7.93162 -0.844143 -5.55112e-017 8.0291 0.4195 4.07411 15.8284 -1.99204 0 9.9351 -2.2114 4.07412 15.8285 -1.99204 4.44089e-016 22.3885 -0.4656 -21.0056 19.0085 7.46302 -0.0001 12.643 3.4389 8.437e-007 -45.0035 3.36302e-006 2.2603 21.606 7.4023 4.94512 -43.6795 24.6259 13.5163 -1.1332 -5.0146 26.5352 -28.9591 12.9296 -0.0995 -28.05 -0.2431 -152.086 -60.4275 165.483 0.0679 -23.3996 -0.1402 -3.44775 -1.74782 25.1734 0.7932 -9.06901 2.5189 -3.18055e-015 -1.27222e-014 -9.54166e-015 -0.8272 -3.3923 0.597699 -7.8616e-006 -1.05522e-005 -3.49247e-007 -0.5649 -2.3158 0.4082 -3.18055e-015 -6.36111e-015 3.18055e-015 0.9159 -9.20441 0.2193 -3.18055e-015 -1.27222e-014 -9.54166e-015 0.0117 -4.1944 -0.0248 -0.0127863 0.00230753 8.44311e-005 0.0071 -2.3249 -0.0142 3.18055e-015 3.18055e-015 -0 0.6113 -8.72311 -2.0637 -3.18055e-015 -1.27222e-014 -9.54166e-015 -0.1927 -3.8059 -0.2383 -0.0160387 0.00298074 0.000853896 -0.1091 -2.1688 -0.1362 -6.36111e-015 0 3.18055e-015 -0.6151 -8.09471 -3.5641 -3.18055e-015 -1.27222e-014 -9.54166e-015 -0.4882 -2.341 -0.646199 -0.0125916 0.00311646 0.00282342 -0.3575 -1.7167 -0.4742 3.18055e-015 -1.27222e-014 3.18055e-015 -1.42 -1.8761 1.4223 -3.18055e-015 -1.27222e-014 -9.54166e-015 -1.1471 -3.4929 2.6334 -7.8616e-006 -1.05522e-005 -3.49247e-007 -0.823 -2.3 1.6571 -3.18055e-015 -6.36111e-015 3.18055e-015 -2.2603 21.606 7.4023 36.4377 -64.6023 -4.1615 -13.5187 -1.1334 -5.0155 -63.2611 25.2393 6.49093 0.0994 -28.0499 -0.2431 40.987 6.79064 39.5926 -0.0679 -23.3996 -0.1402 -11.7332 -41.3083 -57.4634 -0.7932 -9.06911 2.5189 -2.80942e-006 -1.74457e-006 2.92005e-007 0.827199 -3.3923 0.5977 2.80942e-006 1.74457e-006 -2.92005e-007 0.565 -2.3158 0.4082 -4.41391e-032 -1.59028e-015 -1.59028e-015 -0.916 -9.20441 0.2193 -2.80942e-006 -1.74457e-006 2.92005e-007 -0.0117 -4.1944 -0.0248 0.0129932 0.00231949 -0.000100595 -0.0071 -2.3249 -0.0142 -2.809e-006 -4.86451e-007 2.91888e-007 -0.6113 -8.72311 -2.0637 -2.80942e-006 -1.74457e-006 2.92005e-007 0.1927 -3.8059 -0.2383 0.0163492 0.00303771 -0.000881298 0.1091 -2.1688 -0.1362 2.04497e-006 1.20399e-006 -8.2631e-007 0.6151 -8.09471 -3.564 -2.80942e-006 -1.74457e-006 2.92005e-007 0.4882 -2.341 -0.6462 0.0145837 0.00367737 -0.00325453 0.3574 -1.7166 -0.4742 -4.67705e-006 4.7476e-007 -1.81537e-005 1.4199 -1.8761 1.4221 -2.80942e-006 -1.74457e-006 2.92005e-007 1.1472 -3.4929 2.6336 2.80942e-006 1.74457e-006 -2.92005e-007 0.822899 -2.3 1.6571 -4.41391e-032 -1.59028e-015 -1.59028e-015 -9.412 3.9771 -0.7758 -2.70838 -0.657849 -3.74903 -0.7531 -40.938 0 -159.114 76.1442 155.606 -1.77636e-015 -40.1986 3.55271e-015 -8.7161 51.1989 -3.42616 0 -4.4182 9.239 -1.57338e-006 5.4847e-006 2.57097e-006 9.4119 3.9773 -0.7758 4.73164 -2.6764 3.73942 0.7532 -40.9383 0 157.586 77.0938 -155.037 1.77636e-015 -40.1986 -3.55271e-015 10.2728 50.7029 2.30129 0 -4.4182 9.239 -4.11896e-007 1.81909e-007 -7.19784e-007 
